<svg width="148" height="148" viewBox="0 0 148 148" fill="none" xmlns="http://www.w3.org/2000/svg">
<rect width="148" height="148" rx="20" fill="#2A193E"/>
<path d="M42.8273 128C41.0106 128 39.749 127.439 39.0425 126.318C38.4369 125.299 38.336 123.567 38.7397 121.121L42.0704 101.094H25.4172C24.0042 101.094 23.0453 100.737 22.5407 100.024C22.036 99.2085 21.8847 97.8836 22.0865 96.0491C22.2884 94.2146 22.6416 92.8387 23.1463 91.9215C23.7518 91.0042 24.5593 90.3927 25.5685 90.087C26.6788 89.6793 27.8899 89.4755 29.202 89.4755H43.8871L48.4289 61.4993H31.927C30.514 61.4993 29.5048 61.1426 28.8992 60.4292C28.3945 59.7158 28.2432 58.4928 28.445 56.7602C28.6469 54.8238 29.0506 53.3969 29.6562 52.4797C30.2617 51.5624 31.0692 50.9509 32.0784 50.6452C33.0877 50.2375 34.2989 50.0337 35.7119 50.0337H50.2456L54.0304 27.1024C54.4341 24.8602 54.9388 23.1786 55.5443 22.0575C56.1499 20.9364 57.0583 20.172 58.2694 19.7644C59.4805 19.2548 61.1459 19 63.2654 19C65.3849 19 66.6969 19.6115 67.2016 20.8345C67.8071 21.9556 67.8576 23.943 67.353 26.7966L63.4168 50.0337H94.3009L97.7829 27.7139C98.1866 25.4717 98.6408 23.7391 99.1455 22.5161C99.6501 21.2931 100.458 20.4268 101.568 19.9173C102.678 19.3058 104.343 19 106.564 19C108.683 19 110.096 19.5605 110.803 20.6816C111.509 21.7008 111.661 23.4843 111.257 26.0323L107.472 50.0337H121.4C123.116 50.0337 124.176 50.4923 124.579 51.4095C125.084 52.3268 125.135 53.7027 124.731 55.5372C124.327 57.3717 123.772 58.7475 123.066 59.6648C122.359 60.4801 121.552 60.9897 120.643 61.1936C119.836 61.3974 118.877 61.4993 117.767 61.4993H105.353L101.114 89.4755H114.89C116.606 89.4755 117.666 89.985 118.07 91.0042C118.473 91.9215 118.574 93.0425 118.372 94.3675C117.868 96.3039 117.313 97.7817 116.707 98.8008C116.101 99.7181 115.345 100.33 114.436 100.635C113.629 100.941 112.569 101.094 111.257 101.094H98.9941L95.9662 119.745C95.7644 121.579 95.3606 123.108 94.7551 124.331C94.1495 125.554 93.1907 126.471 91.8786 127.083C90.6675 127.694 88.9012 128 86.5799 128C84.965 128 83.8043 127.439 83.0978 126.318C82.3913 125.299 82.2399 123.516 82.6437 120.968L85.6715 101.094H55.2415L52.2137 119.439C51.9109 121.375 51.4567 123.006 50.8512 124.331C50.2456 125.554 49.3372 126.471 48.1261 127.083C46.9149 127.694 45.1487 128 42.8273 128ZM56.9069 89.4755H87.791L92.1814 61.4993H61.9028L56.9069 89.4755Z" fill="#EEDDC4"/>
</svg>
